HIERARCHY
ROOT Hips
{
	OFFSET 0.00000 0.00000 0.00000
	CHANNELS 6 Xposition Yposition Zposition Zrotation Yrotation Xrotation 
	JOINT LHipJoint
	{
		OFFSET 0 0 0
		CHANNELS 3 Zrotation Yrotation Xrotation
		JOINT LeftHip
		{
			OFFSET 1.82298 -1.58346 0.87084
			CHANNELS 3 Zrotation Yrotation Xrotation
			JOINT LeftKnee
			{
				OFFSET 2.43790 -6.69809 0.00000
				CHANNELS 3 Zrotation Yrotation Xrotation
				JOINT LeftAnkle
				{
					OFFSET 2.59288 -7.12389 0.00000
					CHANNELS 3 Zrotation Yrotation Xrotation
					JOINT LeftToe
					{
						OFFSET 0.14552 -0.39981 2.13160
						CHANNELS 3 Zrotation Yrotation Xrotation
						End Site
						{
							OFFSET 0.00000 -0.00000 1.09427
						}
					}
				}
			}
		}
	}
	JOINT RHipJoint
	{
		OFFSET 0 0 0
		CHANNELS 3 Zrotation Yrotation Xrotation
		JOINT RightHip
		{
			OFFSET -1.77229 -1.58346 0.87084
			CHANNELS 3 Zrotation Yrotation Xrotation
			JOINT RightKnee
			{
				OFFSET -2.50703 -6.88801 0.00000
				CHANNELS 3 Zrotation Yrotation Xrotation
				JOINT RightAnkle
				{
					OFFSET -2.61620 -7.18796 0.00000
					CHANNELS 3 Zrotation Yrotation Xrotation
					JOINT RightToe
					{
						OFFSET -0.15190 -0.41735 2.15974
						CHANNELS 3 Zrotation Yrotation Xrotation
						End Site
						{
							OFFSET -0.00000 -0.00000 1.10919
						}
					}
				}
			}
		}
	}
	JOINT lowerback
	{
		OFFSET 0 0 0
		CHANNELS 3 Zrotation Yrotation Xrotation
		JOINT Chest
		{
			OFFSET -0.03602 2.12423 -0.30249
			CHANNELS 3 Zrotation Yrotation Xrotation
			JOINT Chest2
			{
				OFFSET 0.02717 2.10043 0.12912
				CHANNELS 3 Zrotation Yrotation Xrotation
				JOINT lowerneck
				{
					OFFSET 0 0 0
					CHANNELS 3 Zrotation Yrotation Xrotation
					JOINT Neck
					{
						OFFSET -0.06371 1.88656 0.11602
						CHANNELS 3 Zrotation Yrotation Xrotation
						JOINT Head
						{
							OFFSET 0.08208 1.87759 -0.11505
							CHANNELS 3 Zrotation Yrotation Xrotation
							End Site
							{
								OFFSET 0.03382 1.93090 -0.05483
							}
						}
					}
				}
				JOINT LeftCollar
				{
					OFFSET 0 0 0
					CHANNELS 3 Zrotation Yrotation Xrotation
					JOINT LeftShoulder
					{
						OFFSET 3.30903 1.40357 0.20156
CHANNELS 3 Zrotation Xrotation Yrotation
						JOINT LeftElbow
						{
OFFSET 0 -5.433010 0.000000
CHANNELS 3 Zrotation Xrotation Yrotation
							JOINT LeftWrist
							{
OFFSET 0 -3.159360 0.000000
CHANNELS 3 Zrotation Xrotation Yrotation
								JOINT lhand
								{
									OFFSET 0 0 0
CHANNELS 3 Zrotation Xrotation Yrotation
									JOINT LFingers
									{
OFFSET 0 -0.712830 0.000000
CHANNELS 3 Zrotation Xrotation Yrotation
										End Site
										{
OFFSET 0 -0.574700 0.000000
										}
									}
								}
								JOINT LThumb
								{
OFFSET 0 0.000000 0.000000
CHANNELS 3 Zrotation Xrotation Yrotation
									End Site
									{
OFFSET 0 -0.583470 0.583470
									}
								}
							}
						}
					}
				}
				JOINT RightCollar
				{
					OFFSET 0 0 0
					CHANNELS 3 Zrotation Yrotation Xrotation
					JOINT RightShoulder
					{
						OFFSET -3.12947 1.60037 -0.00464
CHANNELS 3 Zrotation Xrotation Yrotation
						JOINT RightElbow
						{
OFFSET 0 -5.341940 0.000000
CHANNELS 3 Zrotation Xrotation Yrotation
							JOINT RightWrist
							{
OFFSET 0 -3.193510 0.000000
CHANNELS 3 Zrotation Xrotation Yrotation
								JOINT rhand
								{
									OFFSET 0 0 0
CHANNELS 3 Zrotation Xrotation Yrotation
									JOINT RFingers
									{
OFFSET 0 -0.743860 0.000000
CHANNELS 3 Zrotation Xrotation Yrotation
										End Site
										{
OFFSET 0 -0.599720 0.000000
										}
									}
								}
								JOINT RThumb
								{
OFFSET 0 0.000000 0.000000
CHANNELS 3 Zrotation Xrotation Yrotation
									End Site
									{
OFFSET 0 -0.608880 0.608880
									}
								}
							}
						}
					}
				}
			}
		}
	}
}
MOTION
Frames: 5
Frame Time: 0.008333333333333333
-15.049708 14.589764 19.404597 379.703548 -71.436788 700.587361 0.000000 0.000000 0.000000 -13.046002 -6.102413 16.233761 1.976366 8.816617 25.223427 0.059664 20.217010 -29.007641 5.526171 -13.952889 -43.048974 0.000000 0.000000 0.000000 -0.771931 1.683290 -53.941841 -11.642303 -18.235330 64.850377 0.236929 13.441276 -6.126393 -0.048994 -1.428080 3.927576 -7.701914 4.305666 12.963039 -0.680063 4.454510 -0.338214 2.702267 2.443641 -8.196997 -12.779197 -12.600421 1.232096 9.997865 -17.323920 3.804044 4.332703 -8.692219 2.909190 0.000000 0.000000 0.000000 14.147894 37.047288 -57.501055 116.693608 -57.128494 82.894448 18.753061 -40.697428 -48.207690 0.000000 0.000000 0.000000 -7.125000 0.000000 0.000000 -44.686197 76.221384 34.071685 0.000000 0.000000 0.000000 -76.331742 -63.930867 -20.037220 -10.025685 -16.779744 -1.482365 -22.130394 34.901503 33.048530 0.000000 0.000000 0.000000 7.125000 0.000000 0.000000 13.068019 64.609685 -6.255878
-15.083806 14.575057 19.426852 377.510077 -71.488960 702.801673 0.000000 0.000000 0.000000 -12.782689 -6.872268 15.782078 2.212087 9.294353 26.720598 0.030027 20.944449 -29.787211 5.228332 -13.636463 -41.800206 0.000000 0.000000 0.000000 -0.168144 1.466840 -53.884640 -11.647279 -18.237576 64.866378 0.232212 13.530164 -6.292182 -0.044695 -1.364394 3.752023 -7.514007 4.118333 12.908230 -0.330466 4.270823 -0.438620 3.011339 2.363830 -8.267158 -12.599165 -13.009504 1.336367 10.114522 -17.864672 3.369099 4.318778 -8.958546 2.818069 0.000000 0.000000 0.000000 14.291550 37.090090 -58.037855 116.810354 -57.101676 82.992454 24.257321 -36.997402 -45.356215 0.000000 0.000000 0.000000 -7.125000 0.000000 0.000000 -29.654772 76.434213 22.251928 0.000000 0.000000 0.000000 -76.287923 -64.278836 -20.810642 -9.772520 -16.382948 -1.410139 -21.464782 34.972331 33.170786 0.000000 0.000000 0.000000 7.125000 0.000000 0.000000 13.954387 64.546183 -6.664338
-15.048901 14.543079 19.449360 375.338499 -71.454663 705.670526 0.000000 0.000000 0.000000 -12.126185 -7.675709 13.148014 2.811962 10.383150 30.227631 0.154602 21.091284 -30.839495 4.933082 -13.308013 -40.532704 0.000000 0.000000 0.000000 0.225138 1.574742 -54.764356 -11.640182 -18.234394 64.843695 0.255742 13.644492 -6.037974 -0.017522 -0.851599 2.340606 -7.393849 3.870213 12.680125 -0.123282 3.992452 -0.774369 3.226538 2.247861 -8.477498 -13.056691 -13.356046 1.636805 11.049095 -18.389278 2.834734 4.640387 -9.222548 2.800267 0.000000 0.000000 0.000000 14.389714 36.976364 -58.324346 116.207800 -57.238545 82.486221 24.413532 -36.871520 -45.682927 0.000000 0.000000 0.000000 -7.125000 0.000000 0.000000 -30.403114 76.747521 23.023891 0.000000 0.000000 0.000000 -76.076474 -64.205735 -20.172554 -9.903149 -16.587613 -1.447484 -22.554534 33.229677 33.745955 0.000000 0.000000 0.000000 7.125000 0.000000 0.000000 13.175298 65.411563 -6.552161
-14.930659 14.488909 19.523962 373.366327 -71.935654 707.991786 0.000000 0.000000 0.000000 -11.877414 -9.006261 9.282071 4.178611 12.393665 37.140290 0.123774 21.504316 -31.182326 4.687128 -13.022482 -39.452846 0.000000 0.000000 0.000000 0.280811 2.716062 -55.310298 -11.545748 -18.191942 64.541447 0.261461 13.375914 -5.656794 -0.007000 0.539691 -1.483084 -6.791663 3.805278 12.688323 -0.077228 4.003051 -0.779294 2.937060 2.227664 -8.445853 -13.333223 -13.883985 2.201565 11.772333 -19.123322 1.724081 4.898817 -9.602688 2.564496 0.000000 0.000000 0.000000 14.823791 36.410513 -58.812045 115.876277 -57.312288 82.207314 23.242635 -37.360176 -44.320104 0.000000 0.000000 0.000000 -7.125000 0.000000 0.000000 -28.211202 75.226863 20.442237 0.000000 0.000000 0.000000 -77.242054 -63.767590 -22.342953 -9.785269 -16.403026 -1.413683 -20.612395 31.620995 33.295700 0.000000 0.000000 0.000000 7.125000 0.000000 0.000000 15.064586 64.432841 -7.167174
-14.700908 14.423461 19.640567 371.133018 -72.516574 710.343394 0.000000 0.000000 0.000000 -12.035645 -12.202023 4.653253 6.458802 14.855105 46.789746 0.129577 20.977377 -30.520450 4.506516 -12.805497 -38.644702 0.000000 0.000000 0.000000 -0.140881 4.553628 -55.505072 -11.279691 -18.069198 63.686538 0.254270 12.503044 -4.807866 -0.091206 1.940616 -5.341892 -6.359666 3.758011 13.008832 0.119148 4.002375 -0.604653 2.895439 2.207766 -8.420103 -13.822516 -14.298857 2.914510 12.909080 -19.722160 0.366213 5.335476 -9.927839 2.288152 0.000000 0.000000 0.000000 15.381905 35.351062 -59.811531 115.818144 -57.325031 82.158362 20.018559 -39.402186 -42.446102 0.000000 0.000000 0.000000 -7.125000 0.000000 0.000000 -28.055988 72.526345 18.746528 0.000000 0.000000 0.000000 -78.108132 -62.586462 -19.866734 -11.103510 -18.445655 -1.809331 -16.893531 18.043303 34.513288 0.000000 0.000000 0.000000 7.125000 0.000000 0.000000 20.483817 64.563628 -9.897914
